<svg width="51" height="71" viewBox="0 0 51 71" fill="none" xmlns="http://www.w3.org/2000/svg">
<path d="M32.8028 42.2273C32.8028 40.8728 32.3248 39.837 31.3686 39.1199C30.4125 38.3869 28.6915 37.622 26.2055 36.8252C23.7196 36.0125 21.7516 35.2157 20.3015 34.4349C16.3495 32.2995 14.3735 29.4232 14.3735 25.8058C14.3735 23.9254 14.8993 22.2522 15.9511 20.7861C17.0188 19.3041 18.5406 18.1488 20.5166 17.3202C22.5085 16.4915 24.7395 16.0772 27.2095 16.0772C29.6954 16.0772 31.9104 16.5314 33.8546 17.4397C35.7987 18.3321 37.3046 19.5989 38.3723 21.2403C39.4559 22.8817 39.9977 24.7461 39.9977 26.8337H32.8267C32.8267 25.2401 32.3248 24.0051 31.3208 23.1287C30.3169 22.2363 28.9066 21.7901 27.09 21.7901C25.3371 21.7901 23.9746 22.1646 23.0025 22.9135C22.0305 23.6466 21.5444 24.6186 21.5444 25.8297C21.5444 26.9611 22.1101 27.9093 23.2416 28.6742C24.3889 29.4391 26.0701 30.1562 28.2851 30.8255C32.3646 32.0525 35.3366 33.5744 37.201 35.391C39.0655 37.2076 39.9977 39.4705 39.9977 42.1795C39.9977 45.1913 38.8583 47.5577 36.5795 49.2788C34.3008 50.9839 31.2332 51.8364 27.3768 51.8364C24.6996 51.8364 22.2615 51.3504 20.0624 50.3783C17.8633 49.3903 16.1821 48.0438 15.0189 46.3387C13.8715 44.6336 13.2978 42.6576 13.2978 40.4107H20.4927C20.4927 44.2511 22.7874 46.1713 27.3768 46.1713C29.0819 46.1713 30.4125 45.8287 31.3686 45.1435C32.3248 44.4423 32.8028 43.4703 32.8028 42.2273Z" fill="#CB804B"/>
<path d="M40.5361 54.4707H37.7529V62H32.6113V40.6719H41.0048C43.5341 40.6719 45.5117 41.2334 46.9374 42.3564C48.3632 43.4795 49.0761 45.0664 49.0761 47.1172C49.0761 48.6016 48.7734 49.832 48.1679 50.8086C47.5722 51.7852 46.6347 52.5762 45.3554 53.1816L49.8085 61.7803V62H44.3007L40.5361 54.4707ZM37.7529 50.501H41.0048C41.9814 50.501 42.7138 50.2471 43.2021 49.7393C43.7001 49.2217 43.9492 48.5039 43.9492 47.5859C43.9492 46.668 43.7001 45.9502 43.2021 45.4326C42.704 44.9053 41.9716 44.6416 41.0048 44.6416H37.7529V50.501Z" fill="white"/>
<path d="M11.7608 20.4707H14.544V28H19.6856V6.67188H11.2921C8.76276 6.67188 6.78522 7.2334 5.35944 8.35645C3.93365 9.47949 3.22076 11.0664 3.22076 13.1172C3.22076 14.6016 3.5235 15.832 4.12897 16.8086C4.72467 17.7852 5.66217 18.5762 6.94147 19.1816L2.48834 27.7803V28H7.99615L11.7608 20.4707ZM14.544 16.501H11.2921C10.3155 16.501 9.58307 16.2471 9.09479 15.7393C8.59674 15.2217 8.34772 14.5039 8.34772 13.5859C8.34772 12.668 8.59674 11.9502 9.09479 11.4326C9.59283 10.9053 10.3253 10.6416 11.2921 10.6416H14.544V16.501Z" fill="white"/>
</svg>
