<svg width="227" height="78" viewBox="0 0 227 78" fill="none" xmlns="http://www.w3.org/2000/svg">
<path d="M9.31612 13.5777H5.98794V21H1.81031V0.724561H9.34397C11.7391 0.724561 13.5866 1.25837 14.8863 2.32599C16.186 3.3936 16.8359 4.90219 16.8359 6.85175C16.8359 8.23501 16.5341 9.39083 15.9307 10.3192C15.3365 11.2383 14.4314 11.9717 13.2152 12.5194L17.6018 20.805V21H13.1178L9.31612 13.5777ZM5.98794 10.1939H9.35789C10.4069 10.1939 11.2193 9.92928 11.7948 9.40011C12.3704 8.86166 12.6582 8.12361 12.6582 7.18596C12.6582 6.22975 12.3844 5.47778 11.8366 4.93004C11.2982 4.38231 10.4673 4.10844 9.34397 4.10844H5.98794V10.1939ZM30.3296 14.2462H23.6315V17.7693H31.5133V21H19.5931V4.77686H31.5272V8.03542H23.6315V11.0015H30.3296V14.2462ZM47.3604 15.4437C47.249 17.2169 46.5481 18.6234 45.2577 19.6632C43.9765 20.7029 42.2869 21.2228 40.1888 21.2228C37.9329 21.2228 36.1551 20.5358 34.8554 19.1618C33.5649 17.7786 32.9012 15.8754 32.864 13.4524V12.5333C32.864 10.1103 33.5185 8.17467 34.8275 6.72643C36.1458 5.27818 37.9236 4.55406 40.161 4.55406C42.2591 4.55406 43.9394 5.07858 45.202 6.12763C46.4645 7.17668 47.1887 8.62493 47.3743 10.4724H43.3499C43.2571 8.68991 42.1941 7.79868 40.161 7.79868C38.0443 7.79868 36.9535 9.27942 36.8885 12.2409V13.2714C36.8885 14.9332 37.1438 16.1354 37.6544 16.8781C38.1743 17.6208 39.0191 17.9921 40.1888 17.9921C41.2007 17.9921 41.962 17.7879 42.4726 17.3794C42.9925 16.9709 43.2756 16.3257 43.322 15.4437H47.3604ZM53.7522 21H49.7138V4.77686H53.7522V21ZM60.8402 15.6666V21H56.8019V4.77686H63.7228C65.0411 4.77686 66.2108 5.0136 67.232 5.48706C68.2532 5.95124 69.0377 6.61502 69.5854 7.4784C70.1424 8.34178 70.4209 9.31656 70.4209 10.4027C70.4209 12.0088 69.8129 13.2899 68.5967 14.2462C67.3806 15.1931 65.7327 15.6666 63.6532 15.6666H60.8402ZM60.8402 12.4219H63.7228C64.5769 12.4219 65.236 12.2455 65.7002 11.8928C66.1737 11.54 66.4104 11.0526 66.4104 10.4306C66.4104 9.71575 66.1737 9.14017 65.7002 8.70384C65.236 8.26751 64.5908 8.0447 63.7646 8.03542H60.8402V12.4219ZM83.4691 14.2462H76.7709V17.7693H84.6527V21H72.7326V4.77686H84.6667V8.03542H76.7709V11.0015H83.4691V14.2462ZM9.31612 41.5777H5.98794V49H1.81031V28.7246H9.34397C11.7391 28.7246 13.5866 29.2584 14.8863 30.326C16.186 31.3936 16.8359 32.9022 16.8359 34.8518C16.8359 36.235 16.5341 37.3908 15.9307 38.3192C15.3365 39.2383 14.4314 39.9717 13.2152 40.5194L17.6018 48.805V49H13.1178L9.31612 41.5777ZM5.98794 38.1939H9.35789C10.4069 38.1939 11.2193 37.9293 11.7948 37.4001C12.3704 36.8617 12.6582 36.1236 12.6582 35.186C12.6582 34.2298 12.3844 33.4778 11.8366 32.93C11.2982 32.3823 10.4673 32.1084 9.34397 32.1084H5.98794V38.1939ZM30.3296 42.2462H23.6315V45.7693H31.5133V49H19.5931V32.7769H31.5272V36.0354H23.6315V39.0015H30.3296V42.2462ZM47.3604 43.4437C47.249 45.2169 46.5481 46.6234 45.2577 47.6632C43.9765 48.7029 42.2869 49.2228 40.1888 49.2228C37.9329 49.2228 36.1551 48.5358 34.8554 47.1618C33.5649 45.7786 32.9012 43.8754 32.864 41.4524V40.5333C32.864 38.1103 33.5185 36.1747 34.8275 34.7264C36.1458 33.2782 37.9236 32.5541 40.161 32.5541C42.2591 32.5541 43.9394 33.0786 45.202 34.1276C46.4645 35.1767 47.1887 36.6249 47.3743 38.4724H43.3499C43.2571 36.6899 42.1941 35.7987 40.161 35.7987C38.0443 35.7987 36.9535 37.2794 36.8885 40.2409V41.2714C36.8885 42.9332 37.1438 44.1354 37.6544 44.8781C38.1743 45.6208 39.0191 45.9921 40.1888 45.9921C41.2007 45.9921 41.962 45.7879 42.4726 45.3794C42.9925 44.9709 43.2756 44.3257 43.322 43.4437H47.3604ZM64.0849 41.2157C64.0849 42.8032 63.7739 44.205 63.1519 45.4212C62.5299 46.6373 61.6386 47.575 60.4782 48.2341C59.327 48.8932 58.018 49.2228 56.5512 49.2228C55.0751 49.2228 53.7568 48.8979 52.5964 48.248C51.4452 47.5982 50.554 46.6745 49.9227 45.4769C49.2914 44.27 48.9711 42.8821 48.9618 41.3132V40.589C48.9618 38.9923 49.2728 37.5858 49.8948 36.3696C50.5168 35.1535 51.4034 34.2158 52.5546 33.5567C53.7058 32.8883 55.0287 32.5541 56.5234 32.5541C57.9902 32.5541 59.2945 32.879 60.4364 33.5288C61.5876 34.1787 62.4788 35.1117 63.1101 36.3279C63.7507 37.5347 64.0756 38.9273 64.0849 40.5055V41.2157ZM60.0465 40.5751C60.0465 39.034 59.7355 37.8504 59.1135 37.0241C58.5008 36.1979 57.6374 35.7848 56.5234 35.7848C55.3722 35.7848 54.4949 36.1979 53.8914 37.0241C53.2973 37.8504 53.0002 39.034 53.0002 40.5751V41.2157C53.0002 42.7289 53.3066 43.9079 53.9193 44.7527C54.532 45.5976 55.4093 46.02 56.5512 46.02C57.6281 46.02 58.4776 45.6022 59.0996 44.7667C59.7308 43.9311 60.0465 42.7336 60.0465 41.1739V40.5751ZM71.6882 32.7769L75.7405 43.7083L79.7649 32.7769H85.0984V49H81.0461V45.7136L81.4638 37.1912L77.0773 49H74.3897L70.0171 37.233L70.4349 45.7136V49H66.3826V32.7769H71.6882ZM93.189 32.7769L97.2413 43.7083L101.266 32.7769H106.599V49H102.547V45.7136L102.965 37.1912L98.5782 49H95.8906L91.518 37.233L91.9357 45.7136V49H87.8834V32.7769H93.189ZM120.121 42.2462H113.423V45.7693H121.305V49H109.384V32.7769H121.318V36.0354H113.423V39.0015H120.121V42.2462ZM137.611 49H133.587L127.181 38.8901V49H123.143V32.7769H127.181L133.587 42.9007V32.7769H137.611V49ZM140.382 49V32.7769H145.925C147.447 32.7769 148.821 33.1018 150.047 33.7516C151.272 34.4015 152.228 35.3159 152.915 36.495C153.612 37.6647 153.969 38.983 153.987 40.4498V41.2157C153.987 42.6918 153.644 44.0286 152.957 45.2262C152.279 46.4145 151.328 47.3429 150.102 48.0113C148.886 48.6704 147.508 49 145.966 49H140.382ZM144.421 36.0354V45.7693H145.966C147.34 45.7693 148.338 45.4212 148.96 44.7249C149.592 44.0193 149.917 42.9099 149.935 41.3967V40.5612C149.935 39.0108 149.624 37.8782 149.002 37.1634C148.389 36.4393 147.424 36.0633 146.106 36.0354H144.421ZM166.353 45.9086H160.073L158.931 49H154.893L161.312 32.7769H165.1L171.575 49H167.509L166.353 45.9086ZM161.159 42.9564H165.239L163.192 37.4697L161.159 42.9564ZM185.584 36.0354H180.321V49H176.282V36.0354H171.116V32.7769H185.584V36.0354ZM191.753 49H187.715V32.7769H191.753V49ZM209.439 41.2157C209.439 42.8032 209.128 44.205 208.506 45.4212C207.884 46.6373 206.992 47.575 205.832 48.2341C204.681 48.8932 203.372 49.2228 201.905 49.2228C200.429 49.2228 199.111 48.8979 197.95 48.248C196.799 47.5982 195.908 46.6745 195.276 45.4769C194.645 44.27 194.325 42.8821 194.316 41.3132V40.589C194.316 38.9923 194.627 37.5858 195.249 36.3696C195.871 35.1535 196.757 34.2158 197.908 33.5567C199.06 32.8883 200.382 32.5541 201.877 32.5541C203.344 32.5541 204.648 32.879 205.79 33.5288C206.941 34.1787 207.833 35.1117 208.464 36.3279C209.104 37.5347 209.429 38.9273 209.439 40.5055V41.2157ZM205.4 40.5751C205.4 39.034 205.089 37.8504 204.467 37.0241C203.855 36.1979 202.991 35.7848 201.877 35.7848C200.726 35.7848 199.849 36.1979 199.245 37.0241C198.651 37.8504 198.354 39.034 198.354 40.5751V41.2157C198.354 42.7289 198.66 43.9079 199.273 44.7527C199.886 45.5976 200.763 46.02 201.905 46.02C202.982 46.02 203.831 45.6022 204.453 44.7667C205.085 43.9311 205.4 42.7336 205.4 41.1739V40.5751ZM226.205 49H222.18L215.775 38.8901V49H211.736V32.7769H215.775L222.18 42.9007V32.7769H226.205V49ZM12.324 71.6805C12.324 70.8914 12.0455 70.2879 11.4885 69.8702C10.9315 69.4431 9.92884 68.9975 8.48059 68.5333C7.03235 68.0599 5.88582 67.5957 5.04101 67.1408C2.73867 65.8968 1.5875 64.2211 1.5875 62.1137C1.5875 61.0182 1.89386 60.0435 2.50658 59.1894C3.12858 58.326 4.01517 57.6529 5.16634 57.1702C6.32679 56.6874 7.6265 56.4461 9.06546 56.4461C10.5137 56.4461 11.8041 56.7106 12.9367 57.2398C14.0693 57.7597 14.9466 58.4977 15.5686 59.4539C16.1999 60.4102 16.5156 61.4963 16.5156 62.7125H12.3379C12.3379 61.7841 12.0455 61.0647 11.4606 60.5541C10.8758 60.0342 10.0542 59.7742 8.99583 59.7742C7.97463 59.7742 7.18088 59.9924 6.61458 60.4287C6.04828 60.8558 5.76513 61.4221 5.76513 62.1276C5.76513 62.7868 6.0947 63.3391 6.75384 63.7848C7.42226 64.2304 8.40168 64.6481 9.69211 65.038C12.0687 65.7529 13.8001 66.6395 14.8863 67.6978C15.9725 68.7561 16.5156 70.0744 16.5156 71.6526C16.5156 73.4072 15.8518 74.7859 14.5242 75.7885C13.1967 76.7818 11.4096 77.2785 9.16294 77.2785C7.60329 77.2785 6.18289 76.9954 4.90175 76.4291C3.62061 75.8535 2.64119 75.069 1.96349 74.0757C1.29507 73.0823 0.960855 71.9311 0.960855 70.6221H5.15241C5.15241 72.8595 6.48925 73.9782 9.16294 73.9782C10.1563 73.9782 10.9315 73.7786 11.4885 73.3794C12.0455 72.9709 12.324 72.4046 12.324 71.6805ZM25.205 67.67L28.5332 60.7769H32.9058L27.1825 71.3463V77H23.1441V71.1792L17.5321 60.7769H21.8769L25.205 67.67ZM43.2942 72.6413C43.2942 72.1029 43.0667 71.6712 42.6118 71.3463C42.1569 71.0213 41.3818 70.7289 40.2863 70.469C39.1908 70.209 38.2671 69.9352 37.5151 69.6474C36.7724 69.3503 36.1597 69.0022 35.677 68.603C35.1942 68.2038 34.8368 67.7442 34.6047 67.2243C34.3726 66.6952 34.2566 66.0685 34.2566 65.3444C34.2566 63.9519 34.8368 62.8053 35.9973 61.9048C37.1577 61.0043 38.6524 60.5541 40.4813 60.5541C42.4772 60.5541 44.0879 61.009 45.3134 61.9187C46.5481 62.8193 47.1655 64.054 47.1655 65.6229H43.141C43.141 65.0288 42.8996 64.5321 42.4169 64.1329C41.9434 63.7337 41.3029 63.5341 40.4952 63.5341C39.7803 63.5341 39.2001 63.6919 38.7545 64.0076C38.3089 64.3232 38.0861 64.7178 38.0861 65.1912C38.0861 65.6647 38.3182 66.05 38.7823 66.347C39.2465 66.6348 40.0171 66.9133 41.094 67.1826C43.2571 67.656 44.8028 68.3105 45.7311 69.1461C46.6688 69.9816 47.1376 71.1095 47.1376 72.5299C47.1376 73.9782 46.5667 75.1247 45.4248 75.9695C44.2829 76.805 42.7232 77.2228 40.7458 77.2228C39.3997 77.2228 38.1836 77.0046 37.0974 76.5683C36.0112 76.132 35.171 75.51 34.5769 74.7023C33.992 73.8946 33.6996 72.9384 33.6996 71.8337H37.7379C37.7379 72.697 38.0025 73.319 38.5317 73.6997C39.0701 74.0803 39.8732 74.2706 40.9408 74.2706C41.6649 74.2706 42.2359 74.1221 42.6536 73.825C43.0807 73.5279 43.2942 73.1334 43.2942 72.6413ZM63.0962 64.0354H57.8323V77H53.794V64.0354H48.6276V60.7769H63.0962V64.0354ZM75.6987 70.2462H69.0005V73.7693H76.8823V77H64.9622V60.7769H76.8963V64.0354H69.0005V67.0015H75.6987V70.2462ZM84.0261 60.7769L88.0784 71.7083L92.1029 60.7769H97.4363V77H93.384V73.7136L93.8018 65.1912L89.4152 77H86.7276L82.355 65.233L82.7728 73.7136V77H78.7205V60.7769H84.0261Z" fill="white"/>
</svg>
